<svg width="19" height="19" viewBox="0 0 19 19" fill="none" xmlns="http://www.w3.org/2000/svg">
<path d="M16.625 12.5637C16.6554 12.5024 16.6712 12.4349 16.671 12.3665C16.6708 12.298 16.6546 12.2306 16.6238 12.1695L16.055 11.3406C16.0443 11.3252 16.0384 11.3073 16.0384 11.2872C16.0384 11.267 16.0443 11.2492 16.055 11.2337L16.625 10.4025C16.6554 10.3412 16.6712 10.2736 16.671 10.2052C16.6708 10.1368 16.6546 10.0693 16.6238 10.0082C16.6002 9.94387 16.5629 9.88539 16.5145 9.83681C16.4661 9.78823 16.4078 9.75069 16.3436 9.72679L15.3663 9.36935C15.3482 9.36319 15.3321 9.35237 15.3196 9.33798C15.3071 9.32359 15.2986 9.30614 15.295 9.28741V8.28872C15.2912 8.21807 15.2712 8.14924 15.2363 8.08764C15.2015 8.02604 15.1529 7.97334 15.0943 7.93366C15.0135 7.87843 14.9179 7.84903 14.82 7.84935H14.6181L13.6088 8.1106C13.5817 8.1215 13.5515 8.1215 13.5244 8.1106L12.8725 7.33872C12.8249 7.28697 12.7671 7.24566 12.7027 7.21741C12.6383 7.18915 12.5688 7.17456 12.4984 7.17456C12.4281 7.17456 12.3586 7.18915 12.2942 7.21741C12.2298 7.24566 12.172 7.28697 12.1244 7.33872L11.4713 8.1106C11.4442 8.1215 11.414 8.1215 11.3869 8.1106H11.3881L10.3194 7.83747H10.1911C10.0922 7.83718 9.99538 7.86655 9.91326 7.92179C9.85517 7.9616 9.80699 8.01421 9.7724 8.07555C9.73782 8.1369 9.71776 8.20535 9.71376 8.27566V9.27435C9.71035 9.29312 9.70209 9.31066 9.6898 9.32525C9.67751 9.33983 9.66162 9.35094 9.6437 9.35747L8.66876 9.71372C8.55725 9.73195 8.45579 9.78903 8.38233 9.87488C8.30887 9.96073 8.26815 10.0698 8.26739 10.1828C8.26739 10.254 8.28401 10.3217 8.3137 10.3811L8.88251 11.21C8.8932 11.2254 8.89914 11.2432 8.89914 11.2634C8.89914 11.2836 8.8932 11.3014 8.88251 11.3168L8.31251 12.1481C8.28207 12.2094 8.26634 12.2769 8.26654 12.3454C8.26675 12.4138 8.28289 12.4812 8.3137 12.5423C8.33733 12.6067 8.37462 12.6652 8.423 12.7138C8.47137 12.7623 8.52969 12.7999 8.59395 12.8238L9.57126 13.1812C9.58931 13.1874 9.60541 13.1982 9.61792 13.2126C9.63044 13.227 9.63892 13.2444 9.64251 13.2632V14.2618C9.64629 14.3325 9.66637 14.4013 9.70119 14.4629C9.736 14.5245 9.78461 14.5772 9.8432 14.6169C9.92532 14.6722 10.0221 14.7015 10.1211 14.7012H10.3206L10.6887 14.6181V19L12.5056 16.625L14.2512 19V14.6181L14.6193 14.7131H14.7594C14.8584 14.7134 14.9552 14.684 15.0373 14.6288C15.0954 14.589 15.1436 14.5364 15.1782 14.475C15.2128 14.4137 15.2328 14.3452 15.2368 14.2749V13.2762C15.2402 13.2575 15.2485 13.2399 15.2608 13.2253C15.2731 13.2107 15.289 13.1996 15.3069 13.1931L16.2818 12.8369C16.3562 12.8222 16.4261 12.7901 16.4858 12.7432C16.5454 12.6964 16.5931 12.6361 16.625 12.5673V12.5637Z" fill="white"/>
<path d="M0 1.1875V15.4375H9.5L9.36938 15.3781C9.20025 15.2623 9.05988 15.1093 8.95902 14.9308C8.85816 14.7524 8.79949 14.5532 8.7875 14.3486V14.25H1.1875V2.375H17.8125V14.25H16.1144V14.345C16.1028 14.5494 16.0449 14.7484 15.9449 14.927C15.8449 15.1056 15.7055 15.2591 15.5372 15.3757L15.4375 15.4375H19V1.1875H0Z" fill="white"/>
<path d="M8.82312 8.20562C8.82701 7.99303 8.88137 7.7844 8.98171 7.59693C9.08205 7.40946 9.2255 7.24852 9.40025 7.12737C9.43325 7.11871 9.46782 7.1179 9.50119 7.125H3.5625V8.3125H8.82312V8.20562ZM7.62375 9.5H3.5625V10.6875H7.5525C7.47074 10.5361 7.42335 10.3685 7.4137 10.1968C7.40405 10.025 7.43239 9.85316 7.49669 9.69356C7.51561 9.61639 7.56047 9.54806 7.62375 9.5ZM3.5625 4.75H15.4375V5.9375H3.5625V4.75Z" fill="white"/>
</svg>
