<svg width="21" height="21" viewBox="0 0 21 21" fill="none" xmlns="http://www.w3.org/2000/svg">
<path d="M0 19V4H6V0H14V4H20V10.275C19.4167 9.85833 18.7833 9.54167 18.1 9.325C17.4167 9.10833 16.7167 9 16 9C14.0667 9 12.4167 9.68333 11.05 11.05C9.68333 12.4167 9 14.0667 9 16C9 16.5167 9.05433 17.0293 9.163 17.538C9.271 18.046 9.44167 18.5333 9.675 19H0ZM8 4H12V2H8V4ZM16 21C14.6167 21 13.4377 20.5127 12.463 19.538C11.4877 18.5627 11 17.3833 11 16C11 14.6167 11.4877 13.4373 12.463 12.462C13.4377 11.4873 14.6167 11 16 11C17.3833 11 18.5627 11.4873 19.538 12.462C20.5127 13.4373 21 14.6167 21 16C21 17.3833 20.5127 18.5627 19.538 19.538C18.5627 20.5127 17.3833 21 16 21ZM17.65 18.35L18.35 17.65L16.5 15.8V13H15.5V16.2L17.65 18.35Z" fill="white"/>
</svg>
