<svg width="333" height="71" viewBox="0 0 333 71" fill="none" xmlns="http://www.w3.org/2000/svg">
<path d="M15.768 20.516C18.252 20.516 20.376 21.056 22.14 22.136C23.94 23.216 25.308 24.746 26.244 26.726C27.216 28.67 27.702 30.956 27.702 33.584V36.446H7.884C7.956 39.722 8.784 42.224 10.368 43.952C11.988 45.644 14.238 46.49 17.118 46.49C18.954 46.49 20.574 46.328 21.978 46.004C23.418 45.644 24.894 45.14 26.406 44.492V48.65C24.93 49.298 23.472 49.766 22.032 50.054C20.592 50.378 18.882 50.54 16.902 50.54C14.166 50.54 11.736 49.982 9.612 48.866C7.524 47.75 5.886 46.094 4.698 43.898C3.546 41.666 2.97 38.948 2.97 35.744C2.97 32.576 3.492 29.858 4.536 27.59C5.616 25.322 7.11 23.576 9.018 22.352C10.962 21.128 13.212 20.516 15.768 20.516ZM15.714 24.404C13.446 24.404 11.646 25.142 10.314 26.618C9.018 28.058 8.244 30.074 7.992 32.666H22.734C22.734 31.01 22.482 29.57 21.978 28.346C21.474 27.122 20.7 26.168 19.656 25.484C18.648 24.764 17.334 24.404 15.714 24.404ZM42.2238 35.204L32.2338 21.056H37.6338L45.0858 31.964L52.4838 21.056H57.8298L47.8398 35.204L58.3698 50H52.9698L45.0858 38.444L37.0938 50H31.7478L42.2238 35.204ZM79.0678 20.516C82.6318 20.516 85.4938 21.758 87.6538 24.242C89.8498 26.726 90.9478 30.47 90.9478 35.474C90.9478 38.75 90.4438 41.522 89.4358 43.79C88.4638 46.022 87.0778 47.714 85.2778 48.866C83.5138 49.982 81.4258 50.54 79.0138 50.54C77.5378 50.54 76.2238 50.342 75.0718 49.946C73.9198 49.55 72.9298 49.046 72.1018 48.434C71.3098 47.786 70.6258 47.084 70.0498 46.328H69.7258C69.7978 46.94 69.8698 47.714 69.9418 48.65C70.0138 49.586 70.0498 50.396 70.0498 51.08V62.96H65.2978V21.056H69.1858L69.8338 24.998H70.0498C70.6258 24.17 71.3098 23.414 72.1018 22.73C72.9298 22.046 73.9018 21.506 75.0178 21.11C76.1698 20.714 77.5198 20.516 79.0678 20.516ZM78.2038 24.512C76.2598 24.512 74.6938 24.89 73.5058 25.646C72.3178 26.366 71.4538 27.464 70.9138 28.94C70.3738 30.416 70.0858 32.288 70.0498 34.556V35.474C70.0498 37.85 70.3018 39.866 70.8058 41.522C71.3098 43.178 72.1558 44.438 73.3438 45.302C74.5678 46.166 76.2238 46.598 78.3118 46.598C80.0758 46.598 81.5158 46.112 82.6318 45.14C83.7838 44.168 84.6298 42.854 85.1698 41.198C85.7458 39.506 86.0338 37.58 86.0338 35.42C86.0338 32.108 85.3858 29.462 84.0898 27.482C82.8298 25.502 80.8678 24.512 78.2038 24.512ZM111.048 20.516C113.532 20.516 115.656 21.056 117.42 22.136C119.22 23.216 120.588 24.746 121.524 26.726C122.496 28.67 122.982 30.956 122.982 33.584V36.446H103.164C103.236 39.722 104.064 42.224 105.648 43.952C107.268 45.644 109.518 46.49 112.398 46.49C114.234 46.49 115.854 46.328 117.258 46.004C118.698 45.644 120.174 45.14 121.686 44.492V48.65C120.21 49.298 118.752 49.766 117.312 50.054C115.872 50.378 114.162 50.54 112.182 50.54C109.446 50.54 107.016 49.982 104.892 48.866C102.804 47.75 101.166 46.094 99.9785 43.898C98.8265 41.666 98.2505 38.948 98.2505 35.744C98.2505 32.576 98.7725 29.858 99.8165 27.59C100.896 25.322 102.39 23.576 104.298 22.352C106.242 21.128 108.492 20.516 111.048 20.516ZM110.994 24.404C108.726 24.404 106.926 25.142 105.594 26.618C104.298 28.058 103.524 30.074 103.272 32.666H118.014C118.014 31.01 117.762 29.57 117.258 28.346C116.754 27.122 115.98 26.168 114.936 25.484C113.928 24.764 112.614 24.404 110.994 24.404ZM145.201 20.516C145.741 20.516 146.317 20.552 146.929 20.624C147.577 20.66 148.135 20.732 148.603 20.84L148.009 25.214C147.541 25.106 147.019 25.016 146.443 24.944C145.903 24.872 145.381 24.836 144.877 24.836C143.761 24.836 142.699 25.07 141.691 25.538C140.683 26.006 139.783 26.672 138.991 27.536C138.199 28.364 137.569 29.372 137.101 30.56C136.669 31.748 136.453 33.08 136.453 34.556V50H131.701V21.056H135.589L136.129 26.348H136.345C136.957 25.268 137.695 24.296 138.559 23.432C139.423 22.532 140.413 21.83 141.529 21.326C142.645 20.786 143.869 20.516 145.201 20.516ZM160.11 21.056V50H155.358V21.056H160.11ZM157.788 10.202C158.508 10.202 159.138 10.454 159.678 10.958C160.254 11.426 160.542 12.182 160.542 13.226C160.542 14.234 160.254 14.99 159.678 15.494C159.138 15.998 158.508 16.25 157.788 16.25C156.996 16.25 156.33 15.998 155.79 15.494C155.25 14.99 154.98 14.234 154.98 13.226C154.98 12.182 155.25 11.426 155.79 10.958C156.33 10.454 156.996 10.202 157.788 10.202ZM181.807 20.516C184.291 20.516 186.415 21.056 188.179 22.136C189.979 23.216 191.347 24.746 192.283 26.726C193.255 28.67 193.741 30.956 193.741 33.584V36.446H173.923C173.995 39.722 174.823 42.224 176.407 43.952C178.027 45.644 180.277 46.49 183.157 46.49C184.993 46.49 186.613 46.328 188.017 46.004C189.457 45.644 190.933 45.14 192.445 44.492V48.65C190.969 49.298 189.511 49.766 188.071 50.054C186.631 50.378 184.921 50.54 182.941 50.54C180.205 50.54 177.775 49.982 175.651 48.866C173.563 47.75 171.925 46.094 170.737 43.898C169.585 41.666 169.009 38.948 169.009 35.744C169.009 32.576 169.531 29.858 170.575 27.59C171.655 25.322 173.149 23.576 175.057 22.352C177.001 21.128 179.251 20.516 181.807 20.516ZM181.753 24.404C179.485 24.404 177.685 25.142 176.353 26.618C175.057 28.058 174.283 30.074 174.031 32.666H188.773C188.773 31.01 188.521 29.57 188.017 28.346C187.513 27.122 186.739 26.168 185.695 25.484C184.687 24.764 183.373 24.404 181.753 24.404ZM183.805 8.636C184.237 9.428 184.849 10.328 185.641 11.336C186.469 12.308 187.315 13.28 188.179 14.252C189.079 15.188 189.871 15.998 190.555 16.682V17.276H187.207C186.271 16.7 185.299 15.998 184.291 15.17C183.283 14.306 182.293 13.388 181.321 12.416C180.349 13.388 179.377 14.288 178.405 15.116C177.433 15.944 176.479 16.664 175.543 17.276H172.303V16.682C172.987 15.962 173.743 15.134 174.571 14.198C175.435 13.262 176.263 12.308 177.055 11.336C177.847 10.328 178.477 9.428 178.945 8.636H183.805ZM216.392 20.516C219.848 20.516 222.458 21.362 224.222 23.054C225.986 24.71 226.868 27.41 226.868 31.154V50H222.17V31.478C222.17 29.138 221.648 27.392 220.604 26.24C219.56 25.088 217.922 24.512 215.69 24.512C212.486 24.512 210.272 25.412 209.048 27.212C207.824 29.012 207.212 31.604 207.212 34.988V50H202.46V21.056H206.294L206.996 24.998H207.266C207.914 23.99 208.706 23.162 209.642 22.514C210.614 21.83 211.676 21.326 212.828 21.002C213.98 20.678 215.168 20.516 216.392 20.516ZM248.801 50.54C246.245 50.54 243.959 50.018 241.943 48.974C239.963 47.93 238.397 46.31 237.245 44.114C236.129 41.918 235.571 39.11 235.571 35.69C235.571 32.126 236.165 29.228 237.353 26.996C238.541 24.764 240.143 23.126 242.159 22.082C244.211 21.038 246.533 20.516 249.125 20.516C250.601 20.516 252.023 20.678 253.391 21.002C254.759 21.29 255.875 21.65 256.739 22.082L255.281 26.024C254.417 25.7 253.409 25.394 252.257 25.106C251.105 24.818 250.025 24.674 249.017 24.674C247.073 24.674 245.471 25.088 244.211 25.916C242.951 26.744 242.015 27.968 241.403 29.588C240.791 31.208 240.485 33.224 240.485 35.636C240.485 37.94 240.791 39.902 241.403 41.522C242.015 43.142 242.933 44.366 244.157 45.194C245.381 46.022 246.911 46.436 248.747 46.436C250.331 46.436 251.717 46.274 252.905 45.95C254.129 45.626 255.245 45.23 256.253 44.762V48.974C255.281 49.478 254.201 49.856 253.013 50.108C251.861 50.396 250.457 50.54 248.801 50.54ZM269.238 21.056V50H264.486V21.056H269.238ZM266.916 10.202C267.636 10.202 268.266 10.454 268.806 10.958C269.382 11.426 269.67 12.182 269.67 13.226C269.67 14.234 269.382 14.99 268.806 15.494C268.266 15.998 267.636 16.25 266.916 16.25C266.124 16.25 265.458 15.998 264.918 15.494C264.378 14.99 264.108 14.234 264.108 13.226C264.108 12.182 264.378 11.426 264.918 10.958C265.458 10.454 266.124 10.202 266.916 10.202ZM330.224 42.008C330.224 43.88 329.756 45.446 328.82 46.706C327.884 47.966 326.552 48.92 324.824 49.568C323.096 50.216 321.044 50.54 318.668 50.54C316.652 50.54 314.906 50.378 313.43 50.054C311.99 49.73 310.712 49.28 309.596 48.704V44.384C310.748 44.96 312.134 45.5 313.754 46.004C315.41 46.472 317.084 46.706 318.776 46.706C321.188 46.706 322.934 46.328 324.014 45.572C325.094 44.78 325.634 43.736 325.634 42.44C325.634 41.72 325.436 41.072 325.04 40.496C324.644 39.92 323.924 39.344 322.88 38.768C321.872 38.192 320.414 37.544 318.506 36.824C316.634 36.104 315.032 35.384 313.7 34.664C312.368 33.944 311.342 33.08 310.622 32.072C309.902 31.064 309.542 29.768 309.542 28.184C309.542 25.736 310.532 23.846 312.512 22.514C314.528 21.182 317.156 20.516 320.396 20.516C322.16 20.516 323.798 20.696 325.31 21.056C326.858 21.38 328.298 21.848 329.63 22.46L328.01 26.24C327.218 25.88 326.372 25.574 325.472 25.322C324.608 25.034 323.726 24.818 322.826 24.674C321.926 24.494 321.008 24.404 320.072 24.404C318.128 24.404 316.634 24.728 315.59 25.376C314.582 25.988 314.078 26.834 314.078 27.914C314.078 28.706 314.312 29.39 314.78 29.966C315.248 30.506 316.022 31.046 317.102 31.586C318.218 32.09 319.694 32.702 321.53 33.422C323.366 34.106 324.932 34.808 326.228 35.528C327.524 36.248 328.514 37.13 329.198 38.174C329.882 39.182 330.224 40.46 330.224 42.008Z" fill="#FBFCFF"/>
<path d="M287.627 6.7525C284.198 6.7525 281.609 7.59171 279.859 9.27014C278.11 10.9129 277.235 13.5912 277.235 17.3052V36H281.895V17.6266C281.895 15.3053 282.413 13.5733 283.448 12.4306C284.484 11.2878 286.109 10.7164 288.323 10.7164C291.501 10.7164 293.697 11.6092 294.912 13.3948C296.126 15.1803 296.733 17.7516 296.733 21.1084V36H301.447V7.28817H297.644L296.947 11.1985H296.679C296.037 10.1986 295.251 9.37727 294.322 8.73447C293.358 8.05596 292.305 7.556 291.162 7.2346C290.019 6.9132 288.841 6.7525 287.627 6.7525Z" fill="#FBFCFF"/>
<path d="M287.627 64.2475C284.198 64.2475 281.609 63.4083 279.859 61.7299C278.11 60.0871 277.235 57.4088 277.235 53.6948V35H281.895V53.3734C281.895 55.6947 282.413 57.4267 283.448 58.5694C284.484 59.7122 286.109 60.2836 288.323 60.2836C291.501 60.2836 293.697 59.3908 294.912 57.6052C296.126 55.8197 296.733 53.2484 296.733 49.8916V35H301.447V63.7118H297.644L296.947 59.8015H296.679C296.037 60.8014 295.251 61.6227 294.322 62.2655C293.358 62.944 292.305 63.444 291.162 63.7654C290.019 64.0868 288.841 64.2475 287.627 64.2475Z" fill="#FBFCFF"/>
</svg>
