<svg width="344" height="71" viewBox="0 0 344 71" fill="none" xmlns="http://www.w3.org/2000/svg">
<path d="M23.868 50.594C23.868 49.946 23.886 49.19 23.922 48.326C23.958 47.462 24.03 46.724 24.138 46.112H23.814C22.986 47.336 21.834 48.38 20.358 49.244C18.918 50.108 17.046 50.54 14.742 50.54C11.25 50.54 8.406 49.298 6.21 46.814C4.05 44.294 2.97 40.55 2.97 35.582C2.97 32.27 3.474 29.498 4.482 27.266C5.49 25.034 6.894 23.36 8.694 22.244C10.494 21.092 12.564 20.516 14.904 20.516C17.172 20.516 19.026 20.948 20.466 21.812C21.906 22.676 23.058 23.738 23.922 24.998H24.138L24.84 21.056H28.62V62.96H23.868V50.594ZM15.66 46.598C17.64 46.598 19.224 46.238 20.412 45.518C21.636 44.798 22.518 43.7 23.058 42.224C23.598 40.712 23.886 38.84 23.922 36.608V35.636C23.922 31.964 23.31 29.192 22.086 27.32C20.862 25.412 18.684 24.458 15.552 24.458C12.96 24.458 11.034 25.484 9.774 27.536C8.514 29.552 7.884 32.27 7.884 35.69C7.884 39.11 8.514 41.792 9.774 43.736C11.07 45.644 13.032 46.598 15.66 46.598ZM63.3547 21.056V50H59.4667L58.7647 46.166H58.5487C57.9367 47.174 57.1447 48.002 56.1727 48.65C55.2007 49.298 54.1387 49.766 52.9867 50.054C51.8347 50.378 50.6287 50.54 49.3687 50.54C47.0647 50.54 45.1207 50.18 43.5367 49.46C41.9887 48.704 40.8187 47.552 40.0267 46.004C39.2347 44.456 38.8387 42.458 38.8387 40.01V21.056H43.6447V39.686C43.6447 41.99 44.1667 43.718 45.2107 44.87C46.2547 46.022 47.8747 46.598 50.0707 46.598C52.2307 46.598 53.9227 46.202 55.1467 45.41C56.4067 44.582 57.2887 43.394 57.7927 41.846C58.3327 40.262 58.6027 38.354 58.6027 36.122V21.056H63.3547ZM84.8555 20.57C88.3835 20.57 90.9935 21.344 92.6855 22.892C94.3775 24.44 95.2235 26.906 95.2235 30.29V50H91.7675L90.8495 45.896H90.6335C89.8055 46.94 88.9415 47.822 88.0415 48.542C87.1775 49.226 86.1695 49.73 85.0175 50.054C83.9015 50.378 82.5335 50.54 80.9135 50.54C79.1855 50.54 77.6195 50.234 76.2155 49.622C74.8475 49.01 73.7675 48.074 72.9755 46.814C72.1835 45.518 71.7875 43.898 71.7875 41.954C71.7875 39.074 72.9215 36.86 75.1895 35.312C77.4575 33.728 80.9495 32.864 85.6655 32.72L90.5795 32.558V30.83C90.5795 28.418 90.0575 26.744 89.0135 25.808C87.9695 24.872 86.4935 24.404 84.5855 24.404C83.0735 24.404 81.6335 24.638 80.2655 25.106C78.8975 25.538 77.6195 26.042 76.4315 26.618L74.9735 23.054C76.2335 22.37 77.7275 21.794 79.4555 21.326C81.1835 20.822 82.9835 20.57 84.8555 20.57ZM86.2595 36.014C82.6595 36.158 80.1575 36.734 78.7535 37.742C77.3855 38.75 76.7015 40.172 76.7015 42.008C76.7015 43.628 77.1875 44.816 78.1595 45.572C79.1675 46.328 80.4455 46.706 81.9935 46.706C84.4415 46.706 86.4755 46.04 88.0955 44.708C89.7155 43.34 90.5255 41.252 90.5255 38.444V35.852L86.2595 36.014ZM110.265 50H105.513V8.96H110.265V50ZM125.537 21.056V50H120.785V21.056H125.537ZM123.215 10.202C123.935 10.202 124.565 10.454 125.105 10.958C125.681 11.426 125.969 12.182 125.969 13.226C125.969 14.234 125.681 14.99 125.105 15.494C124.565 15.998 123.935 16.25 123.215 16.25C122.423 16.25 121.757 15.998 121.217 15.494C120.677 14.99 120.407 14.234 120.407 13.226C120.407 12.182 120.677 11.426 121.217 10.958C121.757 10.454 122.423 10.202 123.215 10.202ZM149.395 24.728H142.105V50H137.353V24.728H132.277V22.514L137.353 20.894V19.22C137.353 16.736 137.713 14.72 138.433 13.172C139.189 11.624 140.269 10.49 141.673 9.77C143.077 9.05 144.769 8.69 146.749 8.69C147.901 8.69 148.945 8.798 149.881 9.014C150.853 9.194 151.681 9.41 152.365 9.662L151.123 13.388C150.547 13.208 149.881 13.028 149.125 12.848C148.369 12.668 147.595 12.578 146.803 12.578C145.219 12.578 144.031 13.118 143.239 14.198C142.483 15.242 142.105 16.898 142.105 19.166V21.056H149.395V24.728ZM159.385 21.056V50H154.633V21.056H159.385ZM157.063 10.202C157.783 10.202 158.413 10.454 158.953 10.958C159.529 11.426 159.817 12.182 159.817 13.226C159.817 14.234 159.529 14.99 158.953 15.494C158.413 15.998 157.783 16.25 157.063 16.25C156.271 16.25 155.605 15.998 155.065 15.494C154.525 14.99 154.255 14.234 154.255 13.226C154.255 12.182 154.525 11.426 155.065 10.958C155.605 10.454 156.271 10.202 157.063 10.202ZM181.501 50.54C178.945 50.54 176.659 50.018 174.643 48.974C172.663 47.93 171.097 46.31 169.945 44.114C168.829 41.918 168.271 39.11 168.271 35.69C168.271 32.126 168.865 29.228 170.053 26.996C171.241 24.764 172.843 23.126 174.859 22.082C176.911 21.038 179.233 20.516 181.825 20.516C183.301 20.516 184.723 20.678 186.091 21.002C187.459 21.29 188.575 21.65 189.439 22.082L187.981 26.024C187.117 25.7 186.109 25.394 184.957 25.106C183.805 24.818 182.725 24.674 181.717 24.674C179.773 24.674 178.171 25.088 176.911 25.916C175.651 26.744 174.715 27.968 174.103 29.588C173.491 31.208 173.185 33.224 173.185 35.636C173.185 37.94 173.491 39.902 174.103 41.522C174.715 43.142 175.633 44.366 176.857 45.194C178.081 46.022 179.611 46.436 181.447 46.436C183.031 46.436 184.417 46.274 185.605 45.95C186.829 45.626 187.945 45.23 188.953 44.762V48.974C187.981 49.478 186.901 49.856 185.713 50.108C184.561 50.396 183.157 50.54 181.501 50.54ZM240.416 50.54C237.86 50.54 235.574 50.018 233.558 48.974C231.578 47.93 230.012 46.31 228.86 44.114C227.744 41.918 227.186 39.11 227.186 35.69C227.186 32.126 227.78 29.228 228.968 26.996C230.156 24.764 231.758 23.126 233.774 22.082C235.826 21.038 238.148 20.516 240.74 20.516C242.216 20.516 243.638 20.678 245.006 21.002C246.374 21.29 247.49 21.65 248.354 22.082L246.896 26.024C246.032 25.7 245.024 25.394 243.872 25.106C242.72 24.818 241.64 24.674 240.632 24.674C238.688 24.674 237.086 25.088 235.826 25.916C234.566 26.744 233.63 27.968 233.018 29.588C232.406 31.208 232.1 33.224 232.1 35.636C232.1 37.94 232.406 39.902 233.018 41.522C233.63 43.142 234.548 44.366 235.772 45.194C236.996 46.022 238.526 46.436 240.362 46.436C241.946 46.436 243.332 46.274 244.52 45.95C245.744 45.626 246.86 45.23 247.868 44.762V48.974C246.896 49.478 245.816 49.856 244.628 50.108C243.476 50.396 242.072 50.54 240.416 50.54ZM244.844 57.506C244.844 58.658 244.538 59.63 243.926 60.422C243.35 61.25 242.468 61.88 241.28 62.312C240.092 62.744 238.616 62.96 236.852 62.96C236.312 62.96 235.79 62.924 235.286 62.852C234.818 62.816 234.44 62.762 234.152 62.69V59.72C234.476 59.792 234.908 59.846 235.448 59.882C235.988 59.954 236.51 59.99 237.014 59.99C238.31 59.99 239.3 59.81 239.984 59.45C240.668 59.126 241.01 58.514 241.01 57.614C241.01 56.678 240.524 55.994 239.552 55.562C238.616 55.13 237.464 54.824 236.096 54.644L238.418 50H241.55L240.146 52.862C241.01 53.042 241.802 53.312 242.522 53.672C243.242 54.068 243.8 54.572 244.196 55.184C244.628 55.796 244.844 56.57 244.844 57.506ZM281.265 35.474C281.265 37.886 280.941 40.028 280.293 41.9C279.681 43.736 278.781 45.302 277.593 46.598C276.441 47.894 275.019 48.884 273.327 49.568C271.671 50.216 269.817 50.54 267.765 50.54C265.857 50.54 264.093 50.216 262.473 49.568C260.853 48.884 259.449 47.894 258.261 46.598C257.073 45.302 256.137 43.736 255.453 41.9C254.805 40.028 254.481 37.886 254.481 35.474C254.481 32.27 255.021 29.57 256.101 27.374C257.181 25.142 258.729 23.45 260.745 22.298C262.761 21.11 265.155 20.516 267.927 20.516C270.555 20.516 272.859 21.11 274.839 22.298C276.855 23.45 278.421 25.142 279.537 27.374C280.689 29.57 281.265 32.27 281.265 35.474ZM259.395 35.474C259.395 37.742 259.683 39.722 260.259 41.414C260.871 43.07 261.807 44.348 263.067 45.248C264.327 46.148 265.929 46.598 267.873 46.598C269.817 46.598 271.419 46.148 272.679 45.248C273.939 44.348 274.857 43.07 275.433 41.414C276.045 39.722 276.351 37.742 276.351 35.474C276.351 33.17 276.045 31.208 275.433 29.588C274.821 27.968 273.885 26.726 272.625 25.862C271.401 24.962 269.799 24.512 267.819 24.512C264.867 24.512 262.725 25.484 261.393 27.428C260.061 29.372 259.395 32.054 259.395 35.474ZM257.991 17.276C258.099 16.196 258.297 15.242 258.585 14.414C258.909 13.55 259.323 12.83 259.827 12.254C260.331 11.642 260.925 11.174 261.609 10.85C262.293 10.526 263.067 10.364 263.931 10.364C264.723 10.364 265.479 10.526 266.199 10.85C266.955 11.138 267.675 11.498 268.359 11.93C269.043 12.326 269.691 12.686 270.303 13.01C270.951 13.298 271.563 13.442 272.139 13.442C272.967 13.442 273.597 13.19 274.029 12.686C274.497 12.146 274.857 11.354 275.109 10.31H277.809C277.593 12.398 276.981 14.072 275.973 15.332C274.965 16.592 273.615 17.222 271.923 17.222C271.167 17.222 270.429 17.078 269.709 16.79C268.989 16.466 268.269 16.106 267.549 15.71C266.865 15.278 266.199 14.918 265.551 14.63C264.939 14.306 264.327 14.144 263.715 14.144C262.851 14.144 262.203 14.414 261.771 14.954C261.339 15.458 260.997 16.232 260.745 17.276H257.991ZM301.325 20.516C303.809 20.516 305.933 21.056 307.697 22.136C309.497 23.216 310.865 24.746 311.801 26.726C312.773 28.67 313.259 30.956 313.259 33.584V36.446H293.441C293.513 39.722 294.341 42.224 295.925 43.952C297.545 45.644 299.795 46.49 302.675 46.49C304.511 46.49 306.131 46.328 307.535 46.004C308.975 45.644 310.451 45.14 311.963 44.492V48.65C310.487 49.298 309.029 49.766 307.589 50.054C306.149 50.378 304.439 50.54 302.459 50.54C299.723 50.54 297.293 49.982 295.169 48.866C293.081 47.75 291.443 46.094 290.255 43.898C289.103 41.666 288.527 38.948 288.527 35.744C288.527 32.576 289.049 29.858 290.093 27.59C291.173 25.322 292.667 23.576 294.575 22.352C296.519 21.128 298.769 20.516 301.325 20.516ZM301.271 24.404C299.003 24.404 297.203 25.142 295.871 26.618C294.575 28.058 293.801 30.074 293.549 32.666H308.291C308.291 31.01 308.039 29.57 307.535 28.346C307.031 27.122 306.257 26.168 305.213 25.484C304.205 24.764 302.891 24.404 301.271 24.404ZM340.823 42.008C340.823 43.88 340.355 45.446 339.419 46.706C338.483 47.966 337.151 48.92 335.423 49.568C333.695 50.216 331.643 50.54 329.267 50.54C327.251 50.54 325.505 50.378 324.029 50.054C322.589 49.73 321.311 49.28 320.195 48.704V44.384C321.347 44.96 322.733 45.5 324.353 46.004C326.009 46.472 327.683 46.706 329.375 46.706C331.787 46.706 333.533 46.328 334.613 45.572C335.693 44.78 336.233 43.736 336.233 42.44C336.233 41.72 336.035 41.072 335.639 40.496C335.243 39.92 334.523 39.344 333.479 38.768C332.471 38.192 331.013 37.544 329.105 36.824C327.233 36.104 325.631 35.384 324.299 34.664C322.967 33.944 321.941 33.08 321.221 32.072C320.501 31.064 320.141 29.768 320.141 28.184C320.141 25.736 321.131 23.846 323.111 22.514C325.127 21.182 327.755 20.516 330.995 20.516C332.759 20.516 334.397 20.696 335.909 21.056C337.457 21.38 338.897 21.848 340.229 22.46L338.609 26.24C337.817 25.88 336.971 25.574 336.071 25.322C335.207 25.034 334.325 24.818 333.425 24.674C332.525 24.494 331.607 24.404 330.671 24.404C328.727 24.404 327.233 24.728 326.189 25.376C325.181 25.988 324.677 26.834 324.677 27.914C324.677 28.706 324.911 29.39 325.379 29.966C325.847 30.506 326.621 31.046 327.701 31.586C328.817 32.09 330.293 32.702 332.129 33.422C333.965 34.106 335.531 34.808 336.827 35.528C338.123 36.248 339.113 37.13 339.797 38.174C340.481 39.182 340.823 40.46 340.823 42.008Z" fill="#FBFCFF"/>
<path d="M208.148 20.57C211.676 20.57 214.286 21.344 215.978 22.892C217.67 24.44 218.516 26.906 218.516 30.29V50H215.06L214.142 45.896H213.926C213.098 46.94 212.234 47.822 211.334 48.542C210.47 49.226 209.462 49.73 208.31 50.054C207.194 50.378 205.826 50.54 204.206 50.54C202.478 50.54 200.912 50.234 199.508 49.622C198.14 49.01 197.06 48.074 196.268 46.814C195.476 45.518 195.08 43.898 195.08 41.954C195.08 39.074 196.214 36.86 198.482 35.312C200.75 33.728 204.242 32.864 208.958 32.72L213.872 32.558V30.83C213.872 28.418 213.35 26.744 212.306 25.808C211.262 24.872 209.786 24.404 207.878 24.404C206.366 24.404 204.926 24.638 203.558 25.106C202.19 25.538 200.912 26.042 199.724 26.618L198.266 23.054C199.526 22.37 201.02 21.794 202.748 21.326C204.476 20.822 206.276 20.57 208.148 20.57ZM209.552 36.014C205.952 36.158 203.45 36.734 202.046 37.742C200.678 38.75 199.994 40.172 199.994 42.008C199.994 43.628 200.48 44.816 201.452 45.572C202.46 46.328 203.738 46.706 205.286 46.706C207.734 46.706 209.768 46.04 211.388 44.708C213.008 43.34 213.818 41.252 213.818 38.444V35.852L209.552 36.014Z" fill="#402E2A"/>
<path d="M206.627 6.7525C203.198 6.7525 200.609 7.59171 198.859 9.27014C197.11 10.9129 196.235 13.5912 196.235 17.3052V36H200.895V17.6266C200.895 15.3053 201.413 13.5733 202.448 12.4306C203.484 11.2878 205.109 10.7164 207.323 10.7164C210.501 10.7164 212.697 11.6092 213.912 13.3948C215.126 15.1803 215.733 17.7516 215.733 21.1084V36H220.447V7.28817H216.644L215.947 11.1985H215.679C215.037 10.1986 214.251 9.37727 213.322 8.73447C212.358 8.05596 211.305 7.556 210.162 7.2346C209.019 6.9132 207.841 6.7525 206.627 6.7525Z" fill="#FBFCFF"/>
<path d="M206.627 64.2475C203.198 64.2475 200.609 63.4083 198.859 61.7299C197.11 60.0871 196.235 57.4088 196.235 53.6948V35H200.895V53.3734C200.895 55.6947 201.413 57.4267 202.448 58.5694C203.484 59.7122 205.109 60.2836 207.323 60.2836C210.501 60.2836 212.697 59.3908 213.912 57.6052C215.126 55.8197 215.733 53.2484 215.733 49.8916V35H220.447V63.7118H216.644L215.947 59.8015H215.679C215.037 60.8014 214.251 61.6227 213.322 62.2655C212.358 62.944 211.305 63.444 210.162 63.7654C209.019 64.0868 207.841 64.2475 206.627 64.2475Z" fill="#FBFCFF"/>
</svg>
